<?xml version="1.0" encoding="UTF-8"?>
<svg id="Layer_2" xmlns="http://www.w3.org/2000/svg" version="1.1" viewBox="0 0 634.81 143.53">
  <!-- Generator: Adobe Illustrator 29.5.1, SVG Export Plug-In . SVG Version: 2.1.0 Build 141)  -->
  <defs>
    <style>
      .st0 {
        fill: #fff;
      }
    </style>
  </defs>
  <path class="st0" d="M11.48,2.44C6.63,2.44,2.67,6.4,2.67,11.24v120.23c0,4.84,3.97,8.81,8.81,8.81h18.56c4.85,0,8.81-3.96,8.81-8.81V47.43c0-4.85,3.96-8.81,8.81-8.81h47.87c4.85,0,8.81,3.96,8.81,8.81v47.76c0,4.85-3.97,8.8-8.81,8.8h-27.56c-4.84,0-8.81,3.97-8.81,8.81v18.56c0,4.84,3.96,8.81,8.81,8.81h63.74c4.84,0,8.81-3.96,8.81-8.8V11.26c0-4.84-3.97-8.81-8.81-8.81H11.48Z"/>
  <g>
    <path class="st0" d="M171.22,61.01h11.93v7.64h.27c3.31-4.03,11.01-8.91,22.95-8.91,19.63,0,29.18,12.84,29.18,27.38s-8.62,29.28-29.04,29.28c-11.94,0-18.7-3.71-22.55-8.7h-.26v29.71h-12.47V61.01ZM203.71,67.8c-13.53,0-20.03,10.29-20.03,20.37,0,9.02,5.84,20.16,19.89,20.16s18.97-11.99,18.71-20.47c.26-9.77-5.05-20.06-18.57-20.06Z"/>
    <path class="st0" d="M251.07,64.83c6.24-2.97,13.66-5.1,22.28-5.1,19.37,0,27.19,7.64,27.19,22.39v22.39c0,6.15.27,9.02.53,10.61h-11.67v-7h-.26c-2.92,3.28-9.55,8.27-20.96,8.27-14.59,0-24.8-5.09-24.8-16.87,0-13.58,18.57-17.83,31.44-17.83,4.91,0,8.35,0,13.26.21,0-9.34-4.25-14.11-16.72-14.11-7.03,0-14.59,2.12-19.63,5.52l-.66-8.49ZM288.07,89.34c-2.66,0-5.31-.21-7.96-.21-6.76,0-23.48.85-23.48,10.4,0,5.73,6.9,8.8,12.6,8.8,12.33,0,18.83-6.15,18.83-14.22v-4.77Z"/>
    <path class="st0" d="M312.21,129.76c1.6.43,3.71.86,5.84.86,11.14,0,14.86-12.31,14.86-13.37,0-1.17-1.6-3.93-2.38-5.73l-22.95-50.51h13.66l18.17,44.78h.26l18.58-44.78h12.59l-24.94,55.28c-4.64,10.4-9.55,22.39-25.99,22.39-3.98,0-6.24-.42-8.49-.74l.79-8.18Z"/>
    <path class="st0" d="M422.17,70.13c-4.77-1.59-9.56-2.33-13.53-2.33-13.93,0-21.74,9.97-21.74,20.27,0,9.65,6.49,20.26,22.55,20.26,4.23,0,9.54-1.06,13.39-3.07l.92,8.91c-5.16,1.91-11.14,2.23-15.64,2.23-20.44,0-34.48-12.84-34.48-28.33,0-16.45,13.79-28.34,34.48-28.34,5.04,0,11.53.95,15.11,2.12l-1.06,8.27Z"/>
    <path class="st0" d="M463.69,59.73c20.57,0,34.35,11.88,34.35,28.34,0,15.49-14.06,28.33-34.35,28.33s-34.48-12.84-34.48-28.33c0-16.45,13.8-28.34,34.48-28.34ZM463.69,108.33c14.59,0,21.1-10.61,21.1-20.26,0-10.3-7.84-20.27-21.1-20.27s-21.22,9.97-21.22,20.27c0,9.65,6.5,20.26,21.22,20.26Z"/>
    <path class="st0" d="M510.25,61.01h11.68v7.85h.26c4.78-6.26,11.54-9.13,21.49-9.13,7.83,0,15.65,3.19,19.23,10.51,4.64-7.75,14.86-10.51,20.95-10.51,17.25,0,23.48,8.91,23.48,20.69v34.69h-12.47v-32.26c0-6.68-1.98-15.07-12.08-15.07-12.73,0-17.77,9.97-17.77,20.06v27.26h-12.46v-32.26c0-6.68-1.99-15.07-12.08-15.07-12.73,0-17.78,9.97-17.78,20.06v27.26h-12.46v-54.11Z"/>
    <path class="st0" d="M614.31,70.41c0-5.06,4.12-9.18,9.18-9.18s9.19,4.12,9.19,9.18-4.12,9.18-9.19,9.18-9.18-4.12-9.18-9.18ZM630.43,70.41c0-4.3-3.11-7.4-6.95-7.4s-6.94,3.1-6.94,7.4,3.11,7.4,6.94,7.4,6.95-3.1,6.95-7.4ZM619.95,65.17h3.87c2.49,0,3.84.86,3.84,3.05,0,1.79-1.02,2.65-2.71,2.8l2.79,4.55h-1.98l-2.7-4.47h-1.15v4.47h-1.95v-10.4ZM621.9,69.62h1.69c1.15,0,2.13-.15,2.13-1.55,0-1.22-1.11-1.42-2.11-1.42h-1.71v2.98Z"/>
  </g>
</svg>